<svg xmlns="http://www.w3.org/2000/svg" viewBox="0 0 815 1000" width="20" height="20" fill="white">
  <path d="M788 732c-15 36-34 69-57 100-30 39-54 66-74 80-30 22-62 33-96 34-24 0-54-7-90-20-37-13-71-20-102-20-32 0-67 7-104 20-38 13-68 20-91 20-33-1-65-12-95-34-21-14-46-41-75-80-23-31-43-64-59-100-17-38-25-75-25-113 0-50 11-93 33-130 21-37 49-65 84-85 33-20 65-30 96-31 23 0 53 7 91 20 37 13 67 20 90 20 20 0 50-7 90-20 38-13 70-20 95-20 31 1 62 11 93 31 35 20 63 48 84 85 22 37 33 80 33 130 0 38-8 75-25 113zM572 62c0 36-13 70-38 102-30 38-65 61-104 58-1-4-1-9-1-16 0-35 15-72 40-103 12-16 27-30 46-40 18-10 36-16 55-17 1 6 2 10 2 16z"></path>
</svg>
